<svg viewBox="0 0 1024 1024" version="1.1" xmlns="http://www.w3.org/2000/svg" class="icon">
  <path d="M983.722351 796.075891L701.304951 511.763073l284.312819-284.312818c51.176307-51.176307 51.176307-136.470153 0-189.541879-51.176307-51.176307-136.470153-51.176307-189.541879 0L511.763073 322.221194 227.450255 37.908376C176.273947-13.267932 90.980102-13.267932 37.908376 37.908376-13.267932 89.084683-13.267932 174.378528 37.908376 227.450255l284.312818 284.312818L37.908376 796.075891c-51.176307 51.176307-51.176307 136.470153 0 189.541879 51.176307 51.176307 136.470153 51.176307 189.541879 0l284.312818-284.312819 284.312818 284.312819c51.176307 51.176307 136.470153 51.176307 189.541879 0 51.176307-53.071726 51.176307-138.365571-1.895419-189.541879z" fill="currentColor"/>
</svg>

